<svg width="1463" height="676" viewBox="0 0 1463 676" fill="none" xmlns="http://www.w3.org/2000/svg">
<path fill-rule="evenodd" clip-rule="evenodd" d="M142.227 0.184711C238.894 0.0177109 335.561 0.184711 432.227 0.684711C443.312 5.43471 450.478 13.6017 453.727 25.1847C454.394 69.1847 454.394 113.185 453.727 157.185C449.785 170.794 440.952 179.294 427.227 182.685C288.894 183.352 150.56 183.352 12.2273 182.685C7.1783 180.968 3.3453 177.801 0.727302 173.185C-1.3637 120.877 16.8033 77.0427 55.2273 41.6847C80.5723 20.3467 109.572 6.51371 142.227 0.184711Z" fill="white"/>
<path fill-rule="evenodd" clip-rule="evenodd" d="M517.227 0.184711C576.228 0.0177109 635.228 0.184711 694.227 0.684711C706.798 5.63971 714.298 14.8067 716.727 28.1847C717.394 70.1847 717.394 112.185 716.727 154.185C714.146 169.434 705.313 178.934 690.227 182.685C634.227 183.352 578.227 183.352 522.227 182.685C508.502 179.294 499.669 170.794 495.727 157.185C495.06 113.185 495.06 69.1847 495.727 25.1847C499.161 13.5877 506.328 5.25471 517.227 0.184711Z" fill="white"/>
<path fill-rule="evenodd" clip-rule="evenodd" d="M780.227 0.184711C839.227 0.0177109 898.227 0.184711 957.227 0.684711C969.307 5.10071 976.807 13.6007 979.727 26.1847C980.397 69.5177 980.397 112.852 979.727 156.185C976.267 170.316 967.427 179.15 953.227 182.685C896.897 183.352 840.557 183.352 784.227 182.685C769.382 178.177 760.549 168.343 757.727 153.185C757.06 111.852 757.06 70.5177 757.727 29.1847C760.22 15.5367 767.72 5.86971 780.227 0.184711Z" fill="white"/>
<path fill-rule="evenodd" clip-rule="evenodd" d="M1043.23 0.184692C1176.62 -0.310308 1309.95 0.189692 1443.23 1.68469C1452.21 5.99869 1458.38 12.8317 1461.73 22.1847C1462.72 69.2437 1462.38 116.244 1460.73 163.185C1455.72 173.611 1447.56 180.111 1436.23 182.685C1306.56 183.352 1176.9 183.352 1047.23 182.685C1033.8 179.584 1025.3 171.417 1021.73 158.185C1021.06 113.518 1021.06 68.8517 1021.73 24.1847C1024.88 12.5337 1032.05 4.53369 1043.23 0.184692Z" fill="white"/>
<path fill-rule="evenodd" clip-rule="evenodd" d="M0.227254 222.185C60.8953 222.018 121.561 222.185 182.227 222.685C190.031 235.812 201.031 245.479 215.227 251.685C243.053 263.072 271.387 273.072 300.227 281.685C328.982 291.479 355.648 305.146 380.227 322.685C419.828 354.03 443.328 394.864 450.727 445.185C454.065 471.416 455.065 497.749 453.727 524.185C443.583 597.685 403.416 646.185 333.227 669.685C325.663 671.825 317.996 673.495 310.227 674.685C214.56 675.355 118.894 675.355 23.2273 674.685C12.3943 670.515 4.89425 663.015 0.727254 652.185C0.0602539 606.518 0.0602539 560.852 0.727254 515.185C5.05725 503.522 13.2243 496.022 25.2273 492.685C107.229 492.518 189.229 492.018 271.227 491.185C270.593 458.771 256.927 433.604 230.227 415.685C215.106 406.305 199.106 398.638 182.227 392.685C150.055 382.739 118.388 371.406 87.2273 358.685C64.5883 348.05 44.7553 333.55 27.7273 315.185C7.56925 287.534 -1.59775 256.534 0.227254 222.185Z" fill="white"/>
<path fill-rule="evenodd" clip-rule="evenodd" d="M526.227 222.185C579.561 222.018 632.895 222.185 686.227 222.685C703.487 224.612 713.653 234.112 716.727 251.185C717.394 329.185 717.394 407.185 716.727 485.185C715.771 491.428 713.438 497.095 709.727 502.185C665.659 551.914 621.992 601.914 578.727 652.185C571.672 660.915 563.172 667.745 553.227 672.685C532.154 678.215 514.987 672.385 501.727 655.185C498.938 650.155 496.938 644.815 495.727 639.185C495.06 508.852 495.06 378.518 495.727 248.185C500.291 232.777 510.458 224.111 526.227 222.185Z" fill="white"/>
<path fill-rule="evenodd" clip-rule="evenodd" d="M789.227 222.185C842.557 222.018 895.897 222.185 949.227 222.685C965.227 224.918 975.397 233.751 979.727 249.185C980.397 378.852 980.397 508.518 979.727 638.185C974.697 658.545 961.867 670.715 941.227 674.685C928.787 675.985 917.787 672.655 908.227 664.685C860.937 611.238 813.767 557.738 766.727 504.185C761.611 498.516 758.611 491.85 757.727 484.185C757.06 406.852 757.06 329.518 757.727 252.185C760.835 234.387 771.335 224.387 789.227 222.185Z" fill="white"/>
<path fill-rule="evenodd" clip-rule="evenodd" d="M1181.23 222.185C1223.93 221.724 1266.59 222.224 1309.23 223.685C1320.93 227.261 1328.76 234.761 1332.73 246.185C1334.39 379.489 1334.72 512.822 1333.73 646.185C1331.41 660.175 1323.58 669.675 1310.23 674.685C1264.56 675.355 1218.9 675.355 1173.23 674.685C1162 670.455 1154.5 662.615 1150.73 651.185C1149.07 518.548 1148.74 385.881 1149.73 253.185C1152.83 235.247 1163.33 224.914 1181.23 222.185Z" fill="white"/>
</svg>
