<svg width="1920" height="1082" viewBox="0 0 1920 1082" fill="none" xmlns="http://www.w3.org/2000/svg">
<path fill-rule="evenodd" clip-rule="evenodd" d="M371.227 203.185C467.894 203.018 564.561 203.185 661.227 203.685C672.312 208.435 679.478 216.602 682.727 228.185C683.394 272.185 683.394 316.185 682.727 360.185C678.785 373.794 669.952 382.294 656.227 385.685C517.894 386.352 379.56 386.352 241.227 385.685C236.178 383.968 232.345 380.801 229.727 376.185C227.636 323.877 245.803 280.043 284.227 244.685C309.572 223.347 338.572 209.514 371.227 203.185Z" fill="#222222"/>
<path fill-rule="evenodd" clip-rule="evenodd" d="M746.227 203.185C805.228 203.018 864.228 203.185 923.227 203.685C935.798 208.64 943.298 217.807 945.727 231.185C946.394 273.185 946.394 315.185 945.727 357.185C943.146 372.434 934.313 381.934 919.227 385.685C863.227 386.352 807.227 386.352 751.227 385.685C737.502 382.294 728.669 373.794 724.727 360.185C724.06 316.185 724.06 272.185 724.727 228.185C728.161 216.588 735.328 208.255 746.227 203.185Z" fill="#222222"/>
<path fill-rule="evenodd" clip-rule="evenodd" d="M1009.23 203.185C1068.23 203.018 1127.23 203.185 1186.23 203.685C1198.31 208.101 1205.81 216.601 1208.73 229.185C1209.4 272.518 1209.4 315.852 1208.73 359.185C1205.27 373.316 1196.43 382.15 1182.23 385.685C1125.9 386.352 1069.56 386.352 1013.23 385.685C998.382 381.177 989.549 371.343 986.727 356.185C986.06 314.852 986.06 273.518 986.727 232.185C989.22 218.537 996.72 208.87 1009.23 203.185Z" fill="#222222"/>
<path fill-rule="evenodd" clip-rule="evenodd" d="M1272.23 203.185C1405.62 202.69 1538.95 203.19 1672.23 204.685C1681.21 208.999 1687.38 215.832 1690.73 225.185C1691.72 272.244 1691.38 319.244 1689.73 366.185C1684.72 376.611 1676.56 383.111 1665.23 385.685C1535.56 386.352 1405.9 386.352 1276.23 385.685C1262.8 382.584 1254.3 374.417 1250.73 361.185C1250.06 316.518 1250.06 271.852 1250.73 227.185C1253.88 215.534 1261.05 207.534 1272.23 203.185Z" fill="#222222"/>
<path fill-rule="evenodd" clip-rule="evenodd" d="M229.227 425.185C289.895 425.018 350.561 425.185 411.227 425.685C419.031 438.812 430.031 448.479 444.227 454.685C472.053 466.072 500.387 476.072 529.227 484.685C557.982 494.479 584.648 508.146 609.227 525.685C648.828 557.03 672.328 597.864 679.727 648.185C683.065 674.416 684.065 700.749 682.727 727.185C672.583 800.685 632.416 849.185 562.227 872.685C554.663 874.825 546.996 876.495 539.227 877.685C443.56 878.355 347.894 878.355 252.227 877.685C241.394 873.515 233.894 866.015 229.727 855.185C229.06 809.518 229.06 763.852 229.727 718.185C234.057 706.522 242.224 699.022 254.227 695.685C336.229 695.518 418.229 695.018 500.227 694.185C499.593 661.771 485.927 636.604 459.227 618.685C444.106 609.305 428.106 601.638 411.227 595.685C379.055 585.739 347.388 574.406 316.227 561.685C293.588 551.05 273.755 536.55 256.727 518.185C236.569 490.534 227.402 459.534 229.227 425.185Z" fill="#222222"/>
<path fill-rule="evenodd" clip-rule="evenodd" d="M755.227 425.185C808.561 425.018 861.895 425.185 915.227 425.685C932.487 427.612 942.653 437.112 945.727 454.185C946.394 532.185 946.394 610.185 945.727 688.185C944.771 694.428 942.438 700.095 938.727 705.185C894.659 754.914 850.992 804.914 807.727 855.185C800.672 863.915 792.172 870.745 782.227 875.685C761.154 881.215 743.987 875.385 730.727 858.185C727.938 853.155 725.938 847.815 724.727 842.185C724.06 711.852 724.06 581.518 724.727 451.185C729.291 435.777 739.458 427.111 755.227 425.185Z" fill="#222222"/>
<path fill-rule="evenodd" clip-rule="evenodd" d="M1018.23 425.185C1071.56 425.018 1124.9 425.185 1178.23 425.685C1194.23 427.918 1204.4 436.751 1208.73 452.185C1209.4 581.852 1209.4 711.518 1208.73 841.185C1203.7 861.545 1190.87 873.715 1170.23 877.685C1157.79 878.985 1146.79 875.655 1137.23 867.685C1089.94 814.238 1042.77 760.738 995.727 707.185C990.611 701.516 987.611 694.85 986.727 687.185C986.06 609.852 986.06 532.518 986.727 455.185C989.835 437.387 1000.34 427.387 1018.23 425.185Z" fill="#222222"/>
<path fill-rule="evenodd" clip-rule="evenodd" d="M1410.23 425.185C1452.93 424.724 1495.59 425.224 1538.23 426.685C1549.93 430.261 1557.76 437.761 1561.73 449.185C1563.39 582.489 1563.72 715.822 1562.73 849.185C1560.41 863.175 1552.58 872.675 1539.23 877.685C1493.56 878.355 1447.9 878.355 1402.23 877.685C1391 873.455 1383.5 865.615 1379.73 854.185C1378.07 721.548 1377.74 588.881 1378.73 456.185C1381.83 438.247 1392.33 427.914 1410.23 425.185Z" fill="#222222"/>
</svg>
